<?xml version="1.0" encoding="UTF-8"?>
<svg id="Ebene_1" xmlns="http://www.w3.org/2000/svg" version="1.1" viewBox="0 0 404.03 81.14">
  <!-- Generator: Adobe Illustrator 30.5.0, SVG Export Plug-In . SVG Version: 2.1.4 Build 167)  -->
  <path d="M89.24,79.35c-7.41,0-12.81-4.04-12.81-12.14,0-6.97-.67-26.86-1.91-38.32l-10.68,32.59c-1.57,4.72-4.83,13.03-7.76,17.87h-5.96c-7.31,0-13.04-5.51-17.87-21.24l-3.93-12.92c-1.91-6.41-4.27-13.26-5.51-16.52-1.35,13.26-2.36,37.87-2.36,50.68h-7.98c-6.52,0-12.48-4.49-12.48-12.14C0,44.96,3.03,18.09,6.74,1.8h7.42c12.36,0,18.66,5.84,21.47,12.7l6.07,15.06c2.58,6.52,5.84,15.4,7.53,21.92,1.68-5.73,4.04-12.59,6.41-18.21l7.42-17.75c2.81-6.63,6.52-11.35,9.33-13.71h3.93c11.24,0,16.63,6.18,18.09,17.3,2.02,15.18,3.93,39,3.93,60.24h-9.11Z"/>
  <path d="M171.42,79.35c-7.76,0-11.8-2.25-13.15-9.22-.56-2.81-1.24-5.84-2.14-9.1h-26.75c-1.69,5.62-3.04,13.48-3.93,18.32h-8.66c-6.86,0-9.89-3.82-9.89-9.55,0-11.24,14.72-53.95,28.21-68h8.32c7.53,0,12.47,3.82,15.06,8.09,7.42,12.36,19.11,43.04,22.59,69.45h-9.66ZM142.99,21.13c-3.37,6.41-6.74,15.51-8.99,23.15h17.76c-2.25-7.64-5.62-16.97-8.76-23.15Z"/>
  <path d="M229.18,19.67h-11.01v59.68h-9.33c-6.41,0-12.02-2.92-12.02-11.13V19.67h-22.14v-7.42c0-4.72,4.16-10.34,12.02-10.34h54.4v7.42c0,4.83-5.39,10.34-11.91,10.34Z"/>
  <path d="M305.76,26.41c-3.94-5.06-13.61-7.98-22.14-7.98-12.59,0-21.8,8.32-21.8,20.91,0,15.84,9.67,23.37,22.25,23.37,8.32,0,17.53-3.14,21.35-7.19h.56v7.98c0,10-10,17.64-25.17,17.64-21.24,0-40.35-15.29-40.35-39.79,0-22.59,15.85-41.36,41.7-41.36,15.17,0,24.16,7.53,24.16,18.43v7.98h-.56Z"/>
  <path d="M374.63,79.35c-5.84,0-12.14-4.16-12.14-12.03v-19.67h-25.17v31.7h-9.44c-5.85,0-12.03-4.16-12.03-12.03V1.8h11.01c5.62,0,10.34,4.16,10.34,10v18.77h25.28V1.8h10.46c5.06,0,10.9,3.71,10.9,10v67.54h-9.21Z"/>
  <polygon points="391.33 73.12 389.07 73.12 389.07 71.75 395.16 71.75 395.16 73.12 392.91 73.12 392.91 79.45 391.33 79.45 391.33 73.12"/>
  <polygon points="396.33 71.75 398.66 71.75 400.18 77.61 401.68 71.75 404.03 71.75 404.03 79.45 402.54 79.45 402.54 73.24 400.99 79.45 399.39 79.45 397.81 73.24 397.81 79.45 396.33 79.45 396.33 71.75"/>
</svg>